<?xml version="1.0" ?><!-- Uploaded to: SVG Repo, www.svgrepo.com, Generator: SVG Repo Mixer Tools -->
<svg fill="#000000" width="800px" height="800px" viewBox="0 0 64 64" data-name="Layer 1" id="Layer_1" xmlns="http://www.w3.org/2000/svg"><title/><path d="M54.82,54.15H9.18a2,2,0,0,1-2-2V40.56a2,2,0,0,1,2-2H22a2,2,0,0,1,2,2v2.25H40V40.56a2,2,0,0,1,2-2H54.82a2,2,0,0,1,2,2V52.15A2,2,0,0,1,54.82,54.15Zm-43.64-4H52.82V42.56H44v2.25a2,2,0,0,1-2,2H22a2,2,0,0,1-2-2V42.56H11.18Z"/><path d="M42,46.81H22a2,2,0,0,1-2-2V42.56H9.18a2,2,0,0,1-2-2.34l5-28.71a2,2,0,0,1,2-1.66H49.82a2,2,0,0,1,2,1.61l2.58,12.71a2,2,0,0,1-3.92.8L48.19,13.85H15.86l-4.3,24.71H22a2,2,0,0,1,2,2v2.25H40V40.56a2,2,0,0,1,2-2h10.4l-.26-1.49a2,2,0,1,1,3.94-.68l.67,3.83a2,2,0,0,1-2,2.34H44v2.25A2,2,0,0,1,42,46.81Z"/></svg>